<?xml version="1.0" standalone="no"?>
<!DOCTYPE svg PUBLIC "-//W3C//DTD SVG 20010904//EN"
 "http://www.w3.org/TR/2001/REC-SVG-20010904/DTD/svg10.dtd">
<svg version="1.0" xmlns="http://www.w3.org/2000/svg"
 width="512.000000pt" height="455.000000pt" viewBox="0 0 512.000000 455.000000"
 preserveAspectRatio="xMidYMid meet">

<g transform="translate(0.000000,455.000000) scale(0.100000,-0.100000)"
fill="#000000" stroke="none">
<path d="M2275 4214 c-389 -53 -737 -194 -1041 -422 -502 -377 -826 -939 -901
-1562 -20 -171 -12 -522 16 -672 114 -614 443 -1133 941 -1483 l107 -75 297 0
296 0 0 211 0 211 -32 -6 c-141 -30 -333 -22 -448 17 -154 54 -233 131 -320
313 -61 127 -133 227 -195 272 -71 51 -135 115 -135 133 0 29 43 50 102 50
138 0 262 -85 387 -269 95 -139 184 -200 320 -224 80 -14 186 -1 278 34 47 17
53 23 59 56 12 69 64 188 99 230 l36 41 -38 6 c-340 55 -531 132 -689 279
-204 188 -301 419 -322 767 -18 291 38 508 179 695 l51 67 -18 66 c-37 145
-28 338 25 506 l19 60 84 -1 c125 -2 285 -63 470 -181 l90 -57 56 13 c233 51
271 55 532 55 261 0 299 -4 532 -55 l56 -13 90 57 c183 116 345 179 467 181
77 1 80 0 92 -26 57 -116 77 -393 39 -533 l-19 -70 52 -68 c62 -83 122 -205
153 -312 21 -73 23 -99 22 -295 0 -181 -4 -230 -21 -310 -86 -385 -292 -623
-647 -744 -83 -29 -293 -76 -338 -76 -33 0 -43 -14 -22 -31 51 -42 108 -187
124 -311 5 -45 10 -230 10 -410 l0 -328 271 0 270 0 47 27 c148 87 367 279
504 442 353 419 539 933 538 1485 -1 380 -71 685 -236 1022 -296 608 -867
1060 -1520 1203 -229 51 -549 65 -769 35z"/>
</g>
</svg>
